<?xml version="1.0" encoding="utf-8"?>
<!-- Generator: Adobe Illustrator 19.0.0, SVG Export Plug-In . SVG Version: 6.00 Build 0)  -->
<svg version="1.1" id="Слой_1" xmlns="http://www.w3.org/2000/svg" xmlns:xlink="http://www.w3.org/1999/xlink" x="0px" y="0px"
	 viewBox="0 0 284.8 316.3" style="enable-background:new 0 0 284.8 316.3;" xml:space="preserve">
<style type="text/css">
	.st0{fill:#0C0E0F;}
	.st1{fill:#FFFFFF;}
	.st2{fill:none;stroke:#FFFFFF;stroke-miterlimit:10;}
</style>
<rect id="XMLID_27_" x="0.7" y="0" class="st0" width="284.1" height="316.3"/>
<g id="XMLID_65_">
	<g id="XMLID_93_">
		<g id="XMLID_160_">
			<g id="XMLID_162_">
				<path id="XMLID_164_" class="st1" d="M0,299.7h12.5v2.6H3v4.5h8.5v2.6H3v6.7H0L0,299.7z"/>
			</g>
		</g>
		<g id="XMLID_150_">
			<g id="XMLID_152_">
				<path id="XMLID_153_" class="st1" d="M44.8,299.5h2.7l7.4,16.5h-3.1l-1.7-4h-8l-1.7,4h-3L44.8,299.5z M49,309.5l-2.9-6.6
					l-2.9,6.6H49z"/>
			</g>
		</g>
		<g id="XMLID_141_">
			<g id="XMLID_143_">
				<path id="XMLID_145_" class="st1" d="M81,307.8c0-4.7,3.6-8.5,8.7-8.5c3.1,0,5,1.1,6.6,2.5l-1.9,2.1c-1.3-1.2-2.8-2-4.7-2
					c-3.2,0-5.6,2.6-5.6,5.8c0,3.2,2.3,5.8,5.6,5.8c2.1,0,3.4-0.8,4.8-2.1l1.9,1.9c-1.8,1.8-3.7,2.9-6.8,2.9
					C84.7,316.3,81,312.6,81,307.8z"/>
			</g>
		</g>
		<g id="XMLID_127_">
			<g id="XMLID_130_">
				<path id="XMLID_133_" class="st1" d="M124.7,299.7h3V316h-3V299.7z"/>
			</g>
		</g>
		<g id="XMLID_114_">
			<g id="XMLID_117_">
				<path id="XMLID_119_" class="st1" d="M157.1,299.7h3v13.8h8.8v2.6h-11.8V299.7z"/>
			</g>
		</g>
		<g id="XMLID_107_">
			<g id="XMLID_108_">
				<path id="XMLID_111_" class="st1" d="M197.2,299.7h3V316h-3V299.7z"/>
			</g>
		</g>
		<g id="XMLID_101_">
			<g id="XMLID_102_">
				<path id="XMLID_104_" class="st1" d="M233.7,302.3h-5.3v-2.7H242v2.7h-5.3V316h-3V302.3z"/>
			</g>
		</g>
		<g id="XMLID_95_">
			<g id="XMLID_96_">
				<path id="XMLID_98_" class="st1" d="M275.1,309.6l-6.7-9.9h3.5l4.7,7.3l4.8-7.3h3.4l-6.7,9.8v6.5h-3V309.6z"/>
			</g>
		</g>
	</g>
	<g id="XMLID_66_">
		<line id="XMLID_92_" class="st2" x1="0.7" y1="284.7" x2="0.7" y2="0"/>
		<line id="XMLID_90_" class="st2" x1="12.4" y1="284.7" x2="12.4" y2="0"/>
		<line id="XMLID_89_" class="st2" x1="24.2" y1="284.7" x2="24.2" y2="0"/>
		<line id="XMLID_88_" class="st2" x1="36" y1="284.7" x2="36" y2="0"/>
		<path id="XMLID_87_" class="st2" d="M47.8,0v100.8C47.1,111,42,126.7,42,141.5c0,14,5.1,31.2,5.8,41.6v101.5"/>
		<path id="XMLID_86_" class="st2" d="M59.6,0v81.1c0,0-10.5,30.4-10.5,60.5c0,24.8,10.5,61.3,10.5,61.3v81.8"/>
		<path id="XMLID_85_" class="st2" d="M71.4,0v68.2c0,0-13.4,40.2-13.4,73.3c0,34.2,13.4,74.2,13.4,74.2v68.9"/>
		<path id="XMLID_84_" class="st2" d="M83.1,0v58.9c0,0-12.8,41.5-12.8,82.7c0,33.4,12.8,83.5,12.8,83.5v59.6"/>
		<path id="XMLID_83_" class="st2" d="M94.9,0v52.1c0,0-10.4,43.5-10.4,89.5c0,42.9,10.4,90.3,10.4,90.3v52.8"/>
		<path id="XMLID_82_" class="st2" d="M106.7,0v47.2c0,0-7.1,51.6-7.1,94.4c0,44.7,7.1,95.2,7.1,95.2v47.9"/>
		<path id="XMLID_81_" class="st2" d="M118.5,0v43.9c0,0-4.6,61.7-4.6,97.6c0,40.4,4.6,98.5,4.6,98.5v44.7"/>
		<path id="XMLID_80_" class="st2" d="M130.3,0v42.2c0,0-2.2,51.7-2.2,99.4c0,56.2,2.2,100.2,2.2,100.2v42.9"/>
		<line id="XMLID_79_" class="st2" x1="284.1" y1="284.7" x2="284.1" y2="0"/>
		<line id="XMLID_78_" class="st2" x1="272.3" y1="284.7" x2="272.3" y2="0"/>
		<line id="XMLID_77_" class="st2" x1="260.5" y1="284.7" x2="260.5" y2="0"/>
		<line id="XMLID_76_" class="st2" x1="248.8" y1="284.7" x2="248.8" y2="0"/>
		<path id="XMLID_75_" class="st2" d="M237,0v117.8c0.5,6,2.9,17.8,2.9,23.8c0,6.2-2.5,18.5-2.9,24.6v118.5"/>
		<path id="XMLID_74_" class="st2" d="M225.2,0v89.7c0.7,13,8.1,34.7,8.1,51.9c0,22.3-7.4,39.5-8.1,52.7v90.4"/>
		<path id="XMLID_73_" class="st2" d="M213.4,0v80c0,0,12,27.2,12,61.5c0,34-12,66-12,66v77.1"/>
		<path id="XMLID_72_" class="st2" d="M201.6,0v63.2c0,0,13.1,49.4,13.1,78.4c0,28.1-13.1,79.2-13.1,79.2v63.9"/>
		<path id="XMLID_71_" class="st2" d="M189.8,0v55.2c0,0,11.6,42.5,11.6,86.3c0,39.2-11.6,87.2-11.6,87.2v55.9"/>
		<path id="XMLID_70_" class="st2" d="M178.1,0v49.4c0,0,8.3,48.5,8.3,92.2c0,42.9-8.3,93-8.3,93v50.1"/>
		<path id="XMLID_69_" class="st2" d="M166.3,0v45.4c0,0,5.8,60.2,5.8,96.2c0,40.7-5.8,97.1-5.8,97.1v46.1"/>
		<path id="XMLID_68_" class="st2" d="M154.5,0v42.9c0,0,3.4,65.3,3.4,98.7c0,38.5-3.4,99.5-3.4,99.5v43.6"/>
		<polyline id="XMLID_67_" class="st2" points="142.7,0 142.7,41.8 142.7,141.5 142.7,242.1 142.7,284.7 		"/>
	</g>
</g>
</svg>
