<?xml version="1.0" encoding="UTF-8"?><!DOCTYPE svg PUBLIC "-//W3C//DTD SVG 1.1//EN" "http://www.w3.org/Graphics/SVG/1.1/DTD/svg11.dtd"><svg xmlns="http://www.w3.org/2000/svg" xmlns:xlink="http://www.w3.org/1999/xlink" height="240" viewBox="0 0 49 240" width="49"><svg height="41" viewBox="0 0 41 41" width="41" x="4" y="4"><path fill="#555" d="M16 26.5c-1.1 0-2 .9-2 2s.9 2 2 2 2-.9 2-2-.9-2-2-2zm-6-16v2h2l3.6 7.6-1.4 2.5c-.2.3-.2.6-.2 1 0 1.1.9 2 2 2h12v-2H16.4c-.1 0-.2-.1-.2-.2v-.1l.9-1.6h7.4c.8 0 1.4-.4 1.8-1l3.6-6.5c.1-.1.1-.3.1-.5 0-.5-.5-1-1-1H14.2l-.9-2c0-.2-3.3-.2-3.3-.2zm16 16c-1.1 0-2 .9-2 2s.9 2 2 2 2-.9 2-2-.9-2-2-2z"/><path fill="none" d="M8 8.5h24v24H8v-24z"/></svg><svg height="41" viewBox="0 0 41 41" width="41" x="4" y="49"><path fill="#FFF" d="M16 26.5c-1.1 0-2 .9-2 2s.9 2 2 2 2-.9 2-2-.9-2-2-2zm-6-16v2h2l3.6 7.6-1.4 2.5c-.2.3-.2.6-.2 1 0 1.1.9 2 2 2h12v-2H16.4c-.1 0-.2-.1-.2-.2v-.1l.9-1.6h7.4c.8 0 1.4-.4 1.8-1l3.6-6.5c.1-.1.1-.3.1-.5 0-.5-.5-1-1-1H14.2l-.9-2c0-.2-3.3-.2-3.3-.2zm16 16c-1.1 0-2 .9-2 2s.9 2 2 2 2-.9 2-2-.9-2-2-2z"/><path fill="none" d="M8 8.5h24v24H8v-24z"/></svg><svg height="41" viewBox="0 0 41 41" width="41" x="4" y="94"><path fill="none" d="M8.5 8.5h24v24h-24v-24z"/><path fill="#555" d="M11.5 26.5h18v-2h-18v2zm0-5h18v-2h-18v2zm0-7v2h18v-2h-18z"/></svg><svg height="41" viewBox="0 0 41 41" width="41" x="4" y="139"><path fill="none" d="M8.5 8.5h24v24h-24v-24z"/><path fill="#FFF" d="M11.5 26.5h18v-2h-18v2zm0-5h18v-2h-18v2zm0-7v2h18v-2h-18z"/></svg><svg height="24" viewBox="0 0 24 24" width="24" x="4" y="184"><path d="M19 6.4L17.6 5 12 10.6 6.4 5 5 6.4l5.6 5.6L5 17.6 6.4 19l5.6-5.6 5.6 5.6 1.4-1.4-5.6-5.6L19 6.4z"/><path fill="none" d="M0 0h24v24H0V0z"/></svg><svg height="24" viewBox="0 0 24 24" width="24" x="4" y="212"><path d="M19 13h-6v6h-2v-6H5v-2h6V5h2v6h6v2z"/><path d="M0 0h24v24H0z" fill="none"/></svg></svg>