<svg version="1" xmlns="http://www.w3.org/2000/svg" viewBox="0 0 526 296"><path fill="#F2F2F2" d="M67.7 133.9h5.1c3.1 0 5.2 1.6 5.2 4.3 0 2.9-2.5 4.5-5.5 4.5h-3.8v5.2h-1v-14zm4.9 7.9c2.6 0 4.4-1.4 4.4-3.5 0-2.2-1.7-3.4-4.2-3.4h-4v6.9h3.8zm16.5-7.9H95c1.7 0 3.1.5 3.9 1.4.7.7 1.1 1.6 1.1 2.6 0 2.3-1.7 3.7-4.1 4l4.6 6h-1.3l-4.5-5.8h-4.6v5.8h-1v-14zm5.7 7.3c2.3 0 4.1-1.2 4.1-3.2 0-1.9-1.5-3.1-4-3.1h-4.8v6.3h4.7zm16.7-7.3h10v1h-8.9v5.5h8v1h-8v5.6h9v1h-10.1v-14.1zm20.5 12l.7-.8c1.5 1.4 3 2.1 5 2.1 2.1 0 3.5-1.2 3.5-2.8 0-1.5-.8-2.3-4-3-3.4-.7-4.7-1.8-4.7-4 0-2.1 1.9-3.7 4.5-3.7 2 0 3.4.6 4.8 1.7l-.7.8c-1.3-1.1-2.6-1.6-4.2-1.6-2.1 0-3.4 1.2-3.4 2.7 0 1.5.8 2.4 4.1 3.1 3.2.7 4.6 1.8 4.6 3.9 0 2.3-1.9 3.8-4.6 3.8-2.2 0-3.9-.7-5.6-2.2zm20.6 0l.7-.8c1.5 1.4 3 2.1 5 2.1 2.1 0 3.5-1.2 3.5-2.8 0-1.5-.8-2.3-4-3-3.4-.7-4.7-1.8-4.7-4 0-2.1 1.9-3.7 4.5-3.7 2 0 3.4.6 4.8 1.7l-.7.8c-1.3-1.1-2.6-1.6-4.2-1.6-2.1 0-3.4 1.2-3.4 2.7 0 1.5.8 2.4 4.1 3.1 3.2.7 4.6 1.8 4.6 3.9 0 2.3-1.9 3.8-4.6 3.8-2.2 0-3.9-.7-5.6-2.2zm34.8 0l.7-.8c1.5 1.4 3 2.1 5 2.1 2.1 0 3.5-1.2 3.5-2.8 0-1.5-.8-2.3-4-3-3.4-.7-4.7-1.8-4.7-4 0-2.1 1.9-3.7 4.5-3.7 2 0 3.4.6 4.8 1.7l-.7.8c-1.3-1.1-2.6-1.6-4.2-1.6-2.1 0-3.4 1.2-3.4 2.7 0 1.5.8 2.4 4.1 3.1 3.2.7 4.6 1.8 4.6 3.9 0 2.3-1.9 3.8-4.6 3.8-2.2 0-3.9-.7-5.6-2.2zm21.7-12h5.1c3.1 0 5.2 1.6 5.2 4.3 0 2.9-2.5 4.5-5.5 4.5h-3.8v5.2h-1v-14zm4.9 7.9c2.6 0 4.4-1.4 4.4-3.5 0-2.2-1.7-3.4-4.2-3.4h-4v6.9h3.8zm20.4-8h1l6.5 14.1h-1.1L239 144h-8.3l-1.8 3.9h-1.1l6.6-14.1zm4.2 9.3l-3.7-8.1-3.7 8.1h7.4zm12.9-2.2c0-4 3-7.2 7-7.2 2.5 0 3.9 1 5.4 2.3l-.7.7c-1.2-1.2-2.6-2.1-4.7-2.1-3.4 0-5.9 2.7-5.9 6.3 0 3.5 2.6 6.3 5.9 6.3 2 0 3.4-.8 4.8-2.2l.7.7c-1.5 1.5-3.1 2.4-5.6 2.4-4 .1-6.9-3.1-6.9-7.2zm23.3-7h10v1h-8.9v5.5h8v1h-8v5.6h9v1h-10.1v-14.1zm39.3 1h-4.9v-1H320v1h-4.9v13h-1v-13zm15.4 6c0-3.8 2.8-7.2 7.1-7.2s7 3.4 7 7.2c0 3.8-2.8 7.2-7.1 7.2s-7-3.3-7-7.2zm13 0c0-3.5-2.5-6.3-6-6.3s-5.9 2.8-5.9 6.3 2.5 6.3 6 6.3 5.9-2.8 5.9-6.3zm25.7 5l.7-.8c1.5 1.4 3 2.1 5 2.1 2.1 0 3.5-1.2 3.5-2.8 0-1.5-.8-2.3-4-3-3.4-.7-4.7-1.8-4.7-4 0-2.1 1.9-3.7 4.5-3.7 2 0 3.4.6 4.8 1.7l-.7.8c-1.3-1.1-2.6-1.6-4.2-1.6-2.1 0-3.4 1.2-3.4 2.7 0 1.5.8 2.4 4.1 3.1 3.2.7 4.6 1.8 4.6 3.9 0 2.3-1.9 3.8-4.6 3.8-2.2 0-3.9-.7-5.6-2.2zm25.3-11h-4.9v-1h10.8v1h-4.9v13h-1v-13zm20.6-1.1h1l6.5 14.1h-1.1l-1.8-3.9h-8.3l-1.8 3.9h-1.1l6.6-14.1zm4.1 9.3l-3.7-8.1-3.7 8.1h7.4zm14.4-9.2h5.9c1.7 0 3.1.5 3.9 1.4.7.7 1.1 1.6 1.1 2.6 0 2.3-1.7 3.7-4.1 4l4.6 6h-1.3l-4.5-5.8h-4.6v5.8h-1v-14zm5.7 7.3c2.3 0 4.1-1.2 4.1-3.2 0-1.9-1.5-3.1-4-3.1h-4.8v6.3h4.7zm20.4-6.3h-4.9v-1h10.8v1h-4.9v13h-1v-13z"/></svg>