<svg version="1" xmlns="http://www.w3.org/2000/svg" xmlns:xlink="http://www.w3.org/1999/xlink" viewBox="0 0 398.6 20.6"><image overflow="visible" opacity=".6" width="1667" height="92" xlink:href="9E98D3547547D019.png" transform="scale(.2391 .2243)"/><path fill="#FFF" d="M3 3.2h1.6v6.2h8.1V3.2h1.6v14h-1.6v-6.3H4.6v6.3H3v-14zm18.6 7c0-3.9 2.9-7.2 7.2-7.2 4.3 0 7.1 3.3 7.1 7.2 0 3.9-2.9 7.2-7.2 7.2-4.3.1-7.1-3.3-7.1-7.2zm12.6 0c0-3.2-2.3-5.8-5.5-5.8s-5.5 2.6-5.5 5.8c0 3.2 2.3 5.8 5.5 5.8s5.5-2.5 5.5-5.8zm9-7h1.6v12.5h7.9v1.5h-9.5v-14zm16.4 0h4.9c4.4 0 7.4 3 7.4 7 0 3.9-3 7-7.4 7h-4.9v-14zm4.8 12.6c3.5 0 5.8-2.4 5.8-5.5s-2.3-5.5-5.8-5.5h-3.3v11.1h3.3zm23.9-.6l1-1.2c1.5 1.3 2.9 2 4.8 2s3.1-1 3.1-2.4c0-1.3-.7-2-3.6-2.7-3.2-.7-4.7-1.7-4.7-4.1 0-2.2 1.9-3.8 4.6-3.8 2 0 3.5.6 4.9 1.7L97.5 6c-1.3-1.1-2.6-1.5-4-1.5-1.8 0-3 1-3 2.3 0 1.3.7 2.1 3.8 2.7 3.1.7 4.6 1.8 4.6 4 0 2.4-2 4-4.8 4-2.3-.1-4.1-.8-5.8-2.3zm17.7-12h5.2c3.2 0 5.2 1.7 5.2 4.5 0 3-2.5 4.6-5.5 4.6h-3.4v4.9H106v-14zm5.1 7.7c2.3 0 3.8-1.2 3.8-3.1 0-2-1.5-3-3.8-3h-3.5V11l3.5-.1zm16.1-7.8h1.5l6.4 14.1h-1.7l-1.6-3.7h-7.6l-1.7 3.7h-1.6l6.3-14.1zm3.9 9L127.9 5l-3.2 7.1h6.4zm9.2-1.9c0-4 3-7.2 7.1-7.2 2.5 0 4 .9 5.4 2.3l-1 1.1c-1.2-1.1-2.5-1.9-4.4-1.9-3.1 0-5.4 2.5-5.4 5.8 0 3.2 2.3 5.8 5.4 5.8 1.9 0 3.2-.7 4.5-2l1 1.1c-1.5 1.5-3.1 2.4-5.6 2.4-4-.1-7-3.3-7-7.4zm19.4-7h10.1v1.4h-8.5v4.8h7.6v1.4h-7.6v4.9h8.6v1.4h-10.2V3.2zm31.1 1.5h-4.7V3.2h11v1.5h-4.7v12.5h-1.6V4.7zm11.7 5.5c0-3.9 2.9-7.2 7.2-7.2 4.3 0 7.1 3.3 7.1 7.2 0 3.9-2.9 7.2-7.2 7.2-4.2.1-7.1-3.3-7.1-7.2zm12.6 0c0-3.2-2.3-5.8-5.5-5.8s-5.5 2.6-5.5 5.8c0 3.2 2.3 5.8 5.5 5.8 3.3 0 5.5-2.5 5.5-5.8zm22.7-5.5h-4.7V3.2h11v1.5h-4.7v12.5h-1.6V4.7zm13.3-1.5h6c1.7 0 3.1.5 4 1.4.7.7 1.1 1.7 1.1 2.8 0 2.3-1.6 3.7-3.8 4.1l4.3 5.7h-1.9l-4.1-5.4h-4v5.4h-1.6v-14zm5.9 7.2c2.1 0 3.6-1.1 3.6-2.9 0-1.7-1.3-2.8-3.6-2.8h-4.3v5.7h4.3zm17.7-7.3h1.5l6.4 14.1h-1.7l-1.6-3.7h-7.6l-1.7 3.7h-1.6l6.3-14.1zm3.9 9L275.4 5l-3.2 7.1h6.4zm10.7-8.9h1.5l8.8 11.2V3.2h1.5v14h-1.3l-9-11.5v11.5h-1.5v-14zm18.9 12l1-1.2c1.5 1.3 2.9 2 4.8 2s3.1-1 3.1-2.4c0-1.3-.7-2-3.6-2.7-3.2-.7-4.7-1.7-4.7-4.1 0-2.2 1.9-3.8 4.6-3.8 2 0 3.5.6 4.9 1.7l-.9 1.3c-1.3-1.1-2.6-1.5-4-1.5-1.8 0-3 1-3 2.3 0 1.3.7 2.1 3.8 2.7 3.1.7 4.6 1.8 4.6 4 0 2.4-2 4-4.8 4-2.3-.1-4.1-.8-5.8-2.3zm17.7-12H336v1.5h-8.5v5h7.6v1.4h-7.6v6.1h-1.6v-14zm16.2 7c0-3.9 2.9-7.2 7.2-7.2 4.3 0 7.1 3.3 7.1 7.2 0 3.9-2.9 7.2-7.2 7.2-4.2.1-7.1-3.3-7.1-7.2zm12.7 0c0-3.2-2.3-5.8-5.5-5.8s-5.5 2.6-5.5 5.8c0 3.2 2.3 5.8 5.5 5.8s5.5-2.5 5.5-5.8zm9-7h6c1.7 0 3.1.5 4 1.4.7.7 1.1 1.7 1.1 2.8 0 2.3-1.6 3.7-3.8 4.1l4.3 5.7h-1.9l-4.1-5.4h-4v5.4h-1.6v-14zm5.8 7.2c2.1 0 3.6-1.1 3.6-2.9 0-1.7-1.3-2.8-3.6-2.8h-4.3v5.7h4.3zm12.6-7.2h1.6l5.1 7.6 5.1-7.6h1.6v14H394V5.9l-5.1 7.5h-.1l-5.1-7.5v11.3h-1.5v-14z"/></svg>