<?xml version="1.0" encoding="UTF-8"?><!DOCTYPE svg PUBLIC "-//W3C//DTD SVG 1.1//EN" "http://www.w3.org/Graphics/SVG/1.1/DTD/svg11.dtd"><svg xmlns="http://www.w3.org/2000/svg" xmlns:xlink="http://www.w3.org/1999/xlink" height="443" viewBox="0 0 534 443" width="534"><svg height="296" viewBox="0 0 526 296" width="526" x="4" y="4"><path fill="#F2F2F2" d="M67.7 133.9h5.1c3.1 0 5.2 1.6 5.2 4.3 0 2.9-2.5 4.5-5.5 4.5h-3.8v5.2h-1v-14zm4.9 7.9c2.6 0 4.4-1.4 4.4-3.5 0-2.2-1.7-3.4-4.2-3.4h-4v6.9h3.8zm16.5-7.9H95c1.7 0 3.1.5 3.9 1.4.7.7 1.1 1.6 1.1 2.6 0 2.3-1.7 3.7-4.1 4l4.6 6h-1.3l-4.5-5.8h-4.6v5.8h-1v-14zm5.7 7.3c2.3 0 4.1-1.2 4.1-3.2 0-1.9-1.5-3.1-4-3.1h-4.8v6.3h4.7zm16.7-7.3h10v1h-8.9v5.5h8v1h-8v5.6h9v1h-10.1v-14.1zm20.5 12l.7-.8c1.5 1.4 3 2.1 5 2.1 2.1 0 3.5-1.2 3.5-2.8 0-1.5-.8-2.3-4-3-3.4-.7-4.7-1.8-4.7-4 0-2.1 1.9-3.7 4.5-3.7 2 0 3.4.6 4.8 1.7l-.7.8c-1.3-1.1-2.6-1.6-4.2-1.6-2.1 0-3.4 1.2-3.4 2.7 0 1.5.8 2.4 4.1 3.1 3.2.7 4.6 1.8 4.6 3.9 0 2.3-1.9 3.8-4.6 3.8-2.2 0-3.9-.7-5.6-2.2zm20.6 0l.7-.8c1.5 1.4 3 2.1 5 2.1 2.1 0 3.5-1.2 3.5-2.8 0-1.5-.8-2.3-4-3-3.4-.7-4.7-1.8-4.7-4 0-2.1 1.9-3.7 4.5-3.7 2 0 3.4.6 4.8 1.7l-.7.8c-1.3-1.1-2.6-1.6-4.2-1.6-2.1 0-3.4 1.2-3.4 2.7 0 1.5.8 2.4 4.1 3.1 3.2.7 4.6 1.8 4.6 3.9 0 2.3-1.9 3.8-4.6 3.8-2.2 0-3.9-.7-5.6-2.2zm34.8 0l.7-.8c1.5 1.4 3 2.1 5 2.1 2.1 0 3.5-1.2 3.5-2.8 0-1.5-.8-2.3-4-3-3.4-.7-4.7-1.8-4.7-4 0-2.1 1.9-3.7 4.5-3.7 2 0 3.4.6 4.8 1.7l-.7.8c-1.3-1.1-2.6-1.6-4.2-1.6-2.1 0-3.4 1.2-3.4 2.7 0 1.5.8 2.4 4.1 3.1 3.2.7 4.6 1.8 4.6 3.9 0 2.3-1.9 3.8-4.6 3.8-2.2 0-3.9-.7-5.6-2.2zm21.7-12h5.1c3.1 0 5.2 1.6 5.2 4.3 0 2.9-2.5 4.5-5.5 4.5h-3.8v5.2h-1v-14zm4.9 7.9c2.6 0 4.4-1.4 4.4-3.5 0-2.2-1.7-3.4-4.2-3.4h-4v6.9h3.8zm20.4-8h1l6.5 14.1h-1.1L239 144h-8.3l-1.8 3.9h-1.1l6.6-14.1zm4.2 9.3l-3.7-8.1-3.7 8.1h7.4zm12.9-2.2c0-4 3-7.2 7-7.2 2.5 0 3.9 1 5.4 2.3l-.7.7c-1.2-1.2-2.6-2.1-4.7-2.1-3.4 0-5.9 2.7-5.9 6.3 0 3.5 2.6 6.3 5.9 6.3 2 0 3.4-.8 4.8-2.2l.7.7c-1.5 1.5-3.1 2.4-5.6 2.4-4 .1-6.9-3.1-6.9-7.2zm23.3-7h10v1h-8.9v5.5h8v1h-8v5.6h9v1h-10.1v-14.1zm39.3 1h-4.9v-1H320v1h-4.9v13h-1v-13zm15.4 6c0-3.8 2.8-7.2 7.1-7.2s7 3.4 7 7.2c0 3.8-2.8 7.2-7.1 7.2s-7-3.3-7-7.2zm13 0c0-3.5-2.5-6.3-6-6.3s-5.9 2.8-5.9 6.3 2.5 6.3 6 6.3 5.9-2.8 5.9-6.3zm25.7 5l.7-.8c1.5 1.4 3 2.1 5 2.1 2.1 0 3.5-1.2 3.5-2.8 0-1.5-.8-2.3-4-3-3.4-.7-4.7-1.8-4.7-4 0-2.1 1.9-3.7 4.5-3.7 2 0 3.4.6 4.8 1.7l-.7.8c-1.3-1.1-2.6-1.6-4.2-1.6-2.1 0-3.4 1.2-3.4 2.7 0 1.5.8 2.4 4.1 3.1 3.2.7 4.6 1.8 4.6 3.9 0 2.3-1.9 3.8-4.6 3.8-2.2 0-3.9-.7-5.6-2.2zm25.3-11h-4.9v-1h10.8v1h-4.9v13h-1v-13zm20.6-1.1h1l6.5 14.1h-1.1l-1.8-3.9h-8.3l-1.8 3.9h-1.1l6.6-14.1zm4.1 9.3l-3.7-8.1-3.7 8.1h7.4zm14.4-9.2h5.9c1.7 0 3.1.5 3.9 1.4.7.7 1.1 1.6 1.1 2.6 0 2.3-1.7 3.7-4.1 4l4.6 6h-1.3l-4.5-5.8h-4.6v5.8h-1v-14zm5.7 7.3c2.3 0 4.1-1.2 4.1-3.2 0-1.9-1.5-3.1-4-3.1h-4.8v6.3h4.7zm20.4-6.3h-4.9v-1h10.8v1h-4.9v13h-1v-13z"/></svg><svg height="20.6" viewBox="0 0 399 21" width="398.6" x="4" y="304"><image overflow="visible" opacity=".6" width="1667" height="92" xlink:href="9E98D3547547D019.png" transform="scale(.2391 .2243)"/><path fill="#FFF" d="M3 3.2h1.6v6.2h8.1V3.2h1.6v14h-1.6v-6.3H4.6v6.3H3v-14zm18.6 7c0-3.9 2.9-7.2 7.2-7.2 4.3 0 7.1 3.3 7.1 7.2 0 3.9-2.9 7.2-7.2 7.2-4.3.1-7.1-3.3-7.1-7.2zm12.6 0c0-3.2-2.3-5.8-5.5-5.8s-5.5 2.6-5.5 5.8c0 3.2 2.3 5.8 5.5 5.8s5.5-2.5 5.5-5.8zm9-7h1.6v12.5h7.9v1.5h-9.5v-14zm16.4 0h4.9c4.4 0 7.4 3 7.4 7 0 3.9-3 7-7.4 7h-4.9v-14zm4.8 12.6c3.5 0 5.8-2.4 5.8-5.5s-2.3-5.5-5.8-5.5h-3.3v11.1h3.3zm23.9-.6l1-1.2c1.5 1.3 2.9 2 4.8 2s3.1-1 3.1-2.4c0-1.3-.7-2-3.6-2.7-3.2-.7-4.7-1.7-4.7-4.1 0-2.2 1.9-3.8 4.6-3.8 2 0 3.5.6 4.9 1.7L97.5 6c-1.3-1.1-2.6-1.5-4-1.5-1.8 0-3 1-3 2.3 0 1.3.7 2.1 3.8 2.7 3.1.7 4.6 1.8 4.6 4 0 2.4-2 4-4.8 4-2.3-.1-4.1-.8-5.8-2.3zm17.7-12h5.2c3.2 0 5.2 1.7 5.2 4.5 0 3-2.5 4.6-5.5 4.6h-3.4v4.9H106v-14zm5.1 7.7c2.3 0 3.8-1.2 3.8-3.1 0-2-1.5-3-3.8-3h-3.5V11l3.5-.1zm16.1-7.8h1.5l6.4 14.1h-1.7l-1.6-3.7h-7.6l-1.7 3.7h-1.6l6.3-14.1zm3.9 9L127.9 5l-3.2 7.1h6.4zm9.2-1.9c0-4 3-7.2 7.1-7.2 2.5 0 4 .9 5.4 2.3l-1 1.1c-1.2-1.1-2.5-1.9-4.4-1.9-3.1 0-5.4 2.5-5.4 5.8 0 3.2 2.3 5.8 5.4 5.8 1.9 0 3.2-.7 4.5-2l1 1.1c-1.5 1.5-3.1 2.4-5.6 2.4-4-.1-7-3.3-7-7.4zm19.4-7h10.1v1.4h-8.5v4.8h7.6v1.4h-7.6v4.9h8.6v1.4h-10.2V3.2zm31.1 1.5h-4.7V3.2h11v1.5h-4.7v12.5h-1.6V4.7zm11.7 5.5c0-3.9 2.9-7.2 7.2-7.2 4.3 0 7.1 3.3 7.1 7.2 0 3.9-2.9 7.2-7.2 7.2-4.2.1-7.1-3.3-7.1-7.2zm12.6 0c0-3.2-2.3-5.8-5.5-5.8s-5.5 2.6-5.5 5.8c0 3.2 2.3 5.8 5.5 5.8 3.3 0 5.5-2.5 5.5-5.8zm22.7-5.5h-4.7V3.2h11v1.5h-4.7v12.5h-1.6V4.7zm13.3-1.5h6c1.7 0 3.1.5 4 1.4.7.7 1.1 1.7 1.1 2.8 0 2.3-1.6 3.7-3.8 4.1l4.3 5.7h-1.9l-4.1-5.4h-4v5.4h-1.6v-14zm5.9 7.2c2.1 0 3.6-1.1 3.6-2.9 0-1.7-1.3-2.8-3.6-2.8h-4.3v5.7h4.3zm17.7-7.3h1.5l6.4 14.1h-1.7l-1.6-3.7h-7.6l-1.7 3.7h-1.6l6.3-14.1zm3.9 9L275.4 5l-3.2 7.1h6.4zm10.7-8.9h1.5l8.8 11.2V3.2h1.5v14h-1.3l-9-11.5v11.5h-1.5v-14zm18.9 12l1-1.2c1.5 1.3 2.9 2 4.8 2s3.1-1 3.1-2.4c0-1.3-.7-2-3.6-2.7-3.2-.7-4.7-1.7-4.7-4.1 0-2.2 1.9-3.8 4.6-3.8 2 0 3.5.6 4.9 1.7l-.9 1.3c-1.3-1.1-2.6-1.5-4-1.5-1.8 0-3 1-3 2.3 0 1.3.7 2.1 3.8 2.7 3.1.7 4.6 1.8 4.6 4 0 2.4-2 4-4.8 4-2.3-.1-4.1-.8-5.8-2.3zm17.7-12H336v1.5h-8.5v5h7.6v1.4h-7.6v6.1h-1.6v-14zm16.2 7c0-3.9 2.9-7.2 7.2-7.2 4.3 0 7.1 3.3 7.1 7.2 0 3.9-2.9 7.2-7.2 7.2-4.2.1-7.1-3.3-7.1-7.2zm12.7 0c0-3.2-2.3-5.8-5.5-5.8s-5.5 2.6-5.5 5.8c0 3.2 2.3 5.8 5.5 5.8s5.5-2.5 5.5-5.8zm9-7h6c1.7 0 3.1.5 4 1.4.7.7 1.1 1.7 1.1 2.8 0 2.3-1.6 3.7-3.8 4.1l4.3 5.7h-1.9l-4.1-5.4h-4v5.4h-1.6v-14zm5.8 7.2c2.1 0 3.6-1.1 3.6-2.9 0-1.7-1.3-2.8-3.6-2.8h-4.3v5.7h4.3zm12.6-7.2h1.6l5.1 7.6 5.1-7.6h1.6v14H394V5.9l-5.1 7.5h-.1l-5.1-7.5v11.3h-1.5v-14z"/></svg><svg height="109.2" viewBox="0 0 115 110" width="115" x="4" y="329"><style>.st0{fill:#fff}</style><path class="st0" d="M30.5 0C17.8 6.8 7.9 18.1 3 31.9 4.1 16.2 15.5 3.3 30.5 0zM115 52.5c0 17.1-9 32-22.4 40.5 10.5-10.5 16.9-25.1 16.9-41.1 0-14.6-5.4-27.9-14.2-38.1 11.9 8.7 19.7 22.8 19.7 38.7zm-65 56.6h-2.2C21.4 109.2 0 87.7 0 61.3c0-1 0-2 .1-3 3.1 26.3 23.8 47.2 49.9 50.8z"/></svg></svg>